# This file uses centimeters as units for non-parametric coordinates.

v 0.850651 0.000000 -0.525731
v 0.850651 -0.000000 0.525731
v -0.850651 -0.000000 0.525731
v -0.850651 0.000000 -0.525731
v 0.000000 -0.525731 0.850651
v 0.000000 0.525731 0.850651
v 0.000000 0.525731 -0.850651
v 0.000000 -0.525731 -0.850651
v -0.525731 -0.850651 -0.000000
v 0.525731 -0.850651 -0.000000
v 0.525731 0.850651 0.000000
v -0.525731 0.850651 0.000000
v 1.559632 0.377854 -0.352526
v 1.341759 0.948253 0.000000
v 1.559632 0.377854 0.352526
v 0.948252 0.000000 -1.341759
v 0.377853 -0.352526 -1.559632
v 0.377853 0.352526 -1.559632
v -0.352526 1.559632 -0.377853
v 0.000000 1.341759 -0.948252
v 0.352526 1.559632 -0.377853
v -2.321064 -0.561648 -0.525731
v -1.260938 -1.866682 0.280824
v -1.866682 -0.280824 1.260938
v -0.561648 0.525731 2.321064
v -0.280824 -1.260938 1.866682
v 0.525731 -2.321064 0.561648
vt 0.181818 0.250000
vt 0.363636 0.250000
vt 0.545455 0.250000
vt 0.727273 0.250000
vt 0.909091 0.250000
vt 0.090909 0.416667
vt 0.272727 0.416667
vt 0.454545 0.416667
vt 0.636364 0.416667
vt 0.818182 0.416667
vt 1.000000 0.416667
vt 0.000000 0.583333
vt 0.181818 0.583333
vt 0.363636 0.583333
vt 0.545455 0.583333
vt 0.727273 0.583333
vt 0.909091 0.583333
vt 0.090909 0.750000
vt 0.272727 0.750000
vt 0.454545 0.750000
vt 0.636364 0.750000
vt 0.818182 0.750000
vt 0.727273 0.583333
vt 0.818182 0.416667
vt 0.909091 0.583333
vt 0.545455 0.583333
vt 0.636364 0.416667
vt 0.727273 0.250000
vt 0.454545 0.416667
vt 0.363636 0.583333
vt 0.272727 0.416667
vt 0.181818 0.583333
vt 0.090909 0.416667
vt 0.272727 0.750000
vn 0.755761 -0.110264 0.645497
vn 0.645497 -0.755761 -0.110264
vn 0.809017 -0.500000 -0.309017
vn 0.934172 0.356822 0.000000
vn 0.934172 0.356822 0.000000
vn 0.934172 0.356822 0.000000
vn 0.356822 0.000000 -0.934172
vn 0.356822 0.000000 -0.934172
vn 0.356822 0.000000 -0.934172
vn 0.577350 0.577350 -0.577350
vn 0.577350 0.577350 -0.577350
vn 0.577350 0.577350 -0.577350
vn -0.110264 -0.645497 -0.755761
vn 0.500000 -0.309017 0.809017
vn 0.110264 0.645497 0.755761
vn 0.309017 0.809017 0.500000
vn -0.822602 -0.491218 0.286411
vn -0.586739 -0.655607 0.475308
vn -0.655607 -0.475308 0.586739
vn -0.809017 0.500000 0.309017
vn -0.645497 0.755761 0.110264
vn -0.755761 0.110264 -0.645497
vn -0.475308 -0.586739 0.655607
vn -0.491218 -0.286411 0.822602
vn -0.500000 0.309017 -0.809017
vn -0.309017 -0.809017 -0.500000
vn -0.286411 -0.822602 0.491218
vn 0.000000 0.934172 -0.356822
vn 0.000000 0.934172 -0.356822
vn 0.000000 0.934172 -0.356822
vn -0.060744 0.507868 -0.859290
vn -0.060744 0.507868 -0.859290
vn -0.060744 0.507868 -0.859290
vn -0.060744 0.507868 -0.859290
vn -0.060744 0.507868 0.859290
vn -0.060744 0.507868 0.859290
vn -0.060744 0.507868 0.859290
vn -0.060744 0.507868 0.859290
vn 0.470327 -0.882492 0.000000
vn 0.470327 -0.882492 0.000000
vn 0.470327 -0.882492 0.000000
vn 0.470327 -0.882492 0.000000
vn 0.507869 -0.859290 0.060744
vn 0.507868 -0.859290 0.060744
vn 0.507869 -0.859290 0.060744
vn 0.507869 -0.859290 0.060744
vn -0.882492 0.000000 -0.470327
vn -0.882492 0.000000 -0.470327
vn -0.882493 0.000000 -0.470327
vn -0.882493 0.000000 -0.470327
vn 0.507868 0.859290 0.060744
vn 0.507869 0.859290 0.060744
vn 0.507869 0.859290 0.060744
vn 0.507869 0.859290 0.060744
vn -0.859290 -0.060744 -0.507868
vn -0.859290 -0.060744 -0.507868
vn -0.859290 -0.060744 -0.507868
vn -0.859290 -0.060744 -0.507868
vn 0.000000 0.470327 0.882492
vn 0.000000 0.470327 0.882492
vn 0.000000 0.470327 0.882493
vn 0.000000 0.470327 0.882493
vn 0.859290 -0.060744 -0.507868
vn 0.859290 -0.060744 -0.507868
vn 0.859290 -0.060744 -0.507868
vn 0.859290 -0.060744 -0.507868
vn 0.190876 -0.424399 -0.885128
vn 0.116059 -0.379497 -0.917885
vn 0.116059 -0.379497 -0.917885
vn 0.190876 -0.424399 -0.885128
vn -0.379497 0.917885 -0.116059
vn -0.331297 0.942668 -0.040234
vn -0.331297 0.942668 -0.040234
vn -0.379497 0.917885 -0.116059
vn 0.917885 0.116059 0.379497
vn 0.942668 0.040234 0.331297
vn 0.942668 0.040234 0.331297
vn 0.917885 0.116059 0.379496
vn -0.424399 0.885128 -0.190876
vn -0.424399 0.885128 -0.190876
vn 0.040234 -0.331297 -0.942668
vn 0.040234 -0.331297 -0.942668
vn 0.885128 0.190876 0.424399
vn 0.885128 0.190876 0.424399
f 2/17/1 10/22/2 1/16/3
f 13/23/4 14/24/5 15/25/6
f 16/23/7 17/26/8 18/27/9
f 1/16/10 7/9/11 11/10/12
f 1/16/3 10/21/2 8/15/13
f 5/13/14 2/12/1 6/6/15
f 10/18/2 2/12/1 5/13/14
f 2/17/1 11/10/16 6/11/15
f 22/29/17 23/30/18 24/31/19
f 3/7/20 12/2/21 4/8/22
f 26/32/23 25/33/24 24/31/19
f 24/31/19 23/30/18 26/32/23
f 6/6/15 12/1/21 3/7/20
f 7/9/25 8/15/13 4/8/22
f 4/8/22 12/3/21 7/9/25
f 4/8/22 8/15/13 9/14/26
f 26/32/23 23/30/18 27/34/27
f 6/11/15 11/10/16 12/5/21
f 20/27/28 19/28/29 21/24/30
f 8/15/13 10/20/2 9/14/26
f 1/16/31 11/10/32 14/24/33 13/23/34
f 11/10/35 2/17/36 15/25/37 14/24/38
f 2/17/39 1/16/40 13/23/41 15/25/42
f 1/16/43 8/15/44 17/26/45 16/23/46
f 8/15/47 7/9/48 18/27/49 17/26/50
f 7/9/51 1/16/52 16/23/53 18/27/54
f 7/9/55 12/4/56 19/28/57 20/27/58
f 12/4/59 11/10/60 21/24/61 19/28/62
f 11/10/63 7/9/64 20/27/65 21/24/66
f 4/8/67 9/14/68 23/30/69 22/29/70
f 3/7/71 4/8/72 22/29/73 24/31/74
f 5/13/75 6/6/76 25/33/77 26/32/78
f 6/6/79 3/7/71 24/31/74 25/33/80
f 9/14/68 10/19/81 27/34/82 23/30/69
f 10/19/83 5/13/75 26/32/78 27/34/84
