<?xml version="1.0" encoding="utf-8"?>
<!-- Generator: Adobe Illustrator 16.0.3, SVG Export Plug-In . SVG Version: 6.00 Build 0)  -->
<!DOCTYPE svg PUBLIC "-//W3C//DTD SVG 1.1//EN" "http://www.w3.org/Graphics/SVG/1.1/DTD/svg11.dtd">
<svg version="1.1" id="Layer_1" xmlns="http://www.w3.org/2000/svg" xmlns:xlink="http://www.w3.org/1999/xlink" x="0px" y="0px"
	 width="512px" height="512px" viewBox="0 0 512 512" enable-background="new 0 0 512 512" xml:space="preserve">
<path fill="#85B3C1" d="M199.357,151.364c5.402-12,8.643-25.325,8.643-39.363C208,58.961,165.039,16,112,16s-96,42.961-96,96
	s42.961,96,96,96c14.039,0,27.357-3.24,39.356-8.636L208,256l-56.643,56.637c-12-5.402-25.318-8.637-39.356-8.637
	C58.961,304,16,346.961,16,400s42.961,96,96,96c53.038,0,95.999-42.961,95.999-96c0-14.039-3.24-27.363-8.643-39.361L256,304
	l168,168h72v-24L199.357,151.364z M112,160c-26.52,0-48-21.48-48-47.999c0-26.52,21.48-48,48-48c26.519,0,47.999,21.48,47.999,48
	C160,138.52,138.52,160,112,160z M112,448c-26.52,0-48-21.48-48-48s21.48-48,48-48c26.519,0,47.999,21.48,47.999,48
	C160,426.52,138.52,448,112,448z M256,268c-6.597,0-12-5.402-12-12c0-6.597,5.403-12,12-12c6.598,0,12,5.403,12,12
	C268,262.598,262.598,268,256,268z"/>
<path fill="#85B3C1" d="M424,40L280,184l48,48L496,64V40H424z"/>
</svg>
