<?xml version="1.0" encoding="utf-8"?>
<!-- Generator: Adobe Illustrator 16.0.3, SVG Export Plug-In . SVG Version: 6.00 Build 0)  -->
<!DOCTYPE svg PUBLIC "-//W3C//DTD SVG 1.1//EN" "http://www.w3.org/Graphics/SVG/1.1/DTD/svg11.dtd">
<svg version="1.1" id="Layer_1" xmlns="http://www.w3.org/2000/svg" xmlns:xlink="http://www.w3.org/1999/xlink" x="0px" y="0px"
	 width="512px" height="512px" viewBox="0 0 512 512" enable-background="new 0 0 512 512" xml:space="preserve">
<path fill="#4DBD94" d="M122.88,369.221c0-21.695,1.493-43.164,4.479-64.407s8.427-42.712,16.32-64.406
	c7.893-21.695,17.6-40.679,29.12-56.949c11.521-16.271,26.773-29.492,45.76-39.661c18.987-10.169,40.427-15.254,64.32-15.254V43.797
	c0-7.684,2.88-14.237,8.64-19.661C297.28,18.712,304.427,16,312.96,16c9.387,0,17.28,3.39,23.68,10.169L496,199.729
	c-71.68,76.385-124.8,133.786-159.36,172.204c-5.974,7.231-13.866,10.847-23.68,10.847c-8.533,0-15.68-2.711-21.44-8.135
	c-5.76-5.424-8.64-11.978-8.64-19.661v-84.746c-61.013,1.356-114.347,38.87-160,112.542V369.221z" />
	<path fill="#4DBD94" d="M42.88,496
	c-7.253,0-13.546-2.824-18.88-8.475c-5.333-5.649-8-12.315-8-19.999V72.271c0-7.684,2.667-14.351,8-20
	c5.333-5.65,11.627-8.475,18.88-8.475H256v56.949H69.12v338.983h320v-84.745c22.187-24.407,40.106-43.842,53.76-58.306v170.849
	c0,7.684-2.667,14.35-8,19.999C429.547,493.176,423.254,496,416,496H42.88z"/>
</svg>
