<?xml version="1.0" encoding="utf-8"?>
<!-- Generator: Adobe Illustrator 16.0.3, SVG Export Plug-In . SVG Version: 6.00 Build 0)  -->
<!DOCTYPE svg PUBLIC "-//W3C//DTD SVG 1.1//EN" "http://www.w3.org/Graphics/SVG/1.1/DTD/svg11.dtd">
<svg version="1.1" id="Layer_1" xmlns="http://www.w3.org/2000/svg" xmlns:xlink="http://www.w3.org/1999/xlink" x="0px" y="0px"
	 width="512px" height="512px" viewBox="0 0 512 512" enable-background="new 0 0 512 512" xml:space="preserve">
	 <path fill="#EDCC65" d="M496,288.359c0,5.574-2.64,11.504-7.92,17.797l-85.833,106.785c-7.322,9.168-17.583,16.943-30.781,23.324
	c-13.199,6.383-25.418,9.574-36.658,9.574H56.873c-5.791,0-10.942-1.168-15.456-3.506c-4.512-2.338-6.769-6.201-6.769-11.596
	c0-5.572,2.64-11.504,7.919-17.797L128.4,306.156c7.324-9.168,17.584-16.943,30.782-23.326c13.199-6.381,25.418-9.572,36.658-9.572
	h277.934c5.791,0,10.944,1.168,15.456,3.506C493.743,279.102,496,282.965,496,288.359L496,288.359z" />
	<path fill="#EDCC65" d="M408.379,195.596v43.146H195.84
	c-16.009,0-32.784,4.27-50.325,12.809c-17.542,8.539-31.506,19.281-41.895,32.223L17.533,390.559l-1.277,1.619
	c0-0.719-0.043-1.842-0.128-3.371c-0.084-1.527-0.127-2.65-0.127-3.369V126.563c0-16.537,5.62-30.74,16.859-42.605
	C44.099,72.094,57.554,66.16,73.222,66.16h81.746c15.668,0,29.122,5.934,40.362,17.797c11.24,11.865,16.86,26.068,16.86,42.605
	v8.629h138.967c15.67,0,29.123,5.934,40.362,17.799C402.759,164.855,408.379,179.057,408.379,195.596L408.379,195.596z"/>
</svg>
