<?xml version="1.0" encoding="utf-8"?>
<!-- Generator: Adobe Illustrator 16.0.3, SVG Export Plug-In . SVG Version: 6.00 Build 0)  -->
<!DOCTYPE svg PUBLIC "-//W3C//DTD SVG 1.1//EN" "http://www.w3.org/Graphics/SVG/1.1/DTD/svg11.dtd">
<svg version="1.1" id="Layer_1" xmlns="http://www.w3.org/2000/svg" xmlns:xlink="http://www.w3.org/1999/xlink" x="0px" y="0px"
	 width="512px" height="512px" viewBox="0 0 512 512" enable-background="new 0 0 512 512" xml:space="preserve">

<path fill="#424242" stroke="none" stroke-miterlimit="10" d="M16.865,297.331c14.006-28.014,100.735-124.035,207.6-139.476
	c106.48-15.385,159.682,26.705,159.682,26.705s21.23-38.333,24.346-41.382c4.698-4.598,12.509-9.203,20.937-0.4
	c10.606,11.079,50.346,121.804,63.604,158.118c6.443,17.649,3.815,41.771-22.214,45.774
	c-28.601,4.399-124.945,22.158-168.786,27.423c-6.568,0.789-25.297-1.835-14.222-22.313c12.693-23.472,19.878-37.084,19.878-37.084
	s-74.748-54.505-158.396-50.6c-80.77,3.771-123.659,38.183-128.421,39.206C16.118,304.323,14.979,301.103,16.865,297.331z"/>
</svg>
