<?xml version="1.0" encoding="utf-8"?>
<!-- Generator: Adobe Illustrator 16.0.3, SVG Export Plug-In . SVG Version: 6.00 Build 0)  -->
<!DOCTYPE svg PUBLIC "-//W3C//DTD SVG 1.1//EN" "http://www.w3.org/Graphics/SVG/1.1/DTD/svg11.dtd">
<svg version="1.1" id="Layer_1" xmlns="http://www.w3.org/2000/svg" xmlns:xlink="http://www.w3.org/1999/xlink" x="0px" y="0px"
	 width="512px" height="512px" viewBox="0 0 512 523.781" enable-background="new 0 0 512 523.781" xml:space="preserve">
<path fill="#424242" d="M489.966,69.397c-0.045-3.807-2.177-7.337-5.59-9.057c-3.406-1.747-7.495-1.435-10.617,0.781L433.49,89.984
	l-3.169,2.282c-43.391-43.302-102.943-70.375-168.933-70.375c-132.333,0-239.99,107.667-239.99,239.997
	s107.663,240.003,239.99,240.003c79.815,0,154.206-39.554,198.986-105.808c1.78-2.653,2.455-5.874,1.847-8.996
	s-2.422-5.901-5.067-7.674l-60.034-41.671c-5.896-3.904-13.842-2.409-17.804,3.465c-26.541,39.236-70.521,62.662-117.702,62.662
	c-78.298,0-142.001-63.688-142.001-141.968c0-78.274,63.703-141.968,142.001-141.968c33.045,0,63.35,11.491,87.482,30.485
	l-6.779,4.878l-40.296,28.856c-3.083,2.224-4.71,6.03-4.142,9.81c0.556,3.781,3.188,6.964,6.827,8.185l172.385,58.725
	c3.123,1.091,6.537,0.562,9.263-1.376c2.697-1.965,4.259-5.061,4.247-8.339L489.966,69.397z"/>
</svg>
