<?xml version="1.0" encoding="utf-8"?>
<!-- Generator: Adobe Illustrator 16.0.3, SVG Export Plug-In . SVG Version: 6.00 Build 0)  -->
<!DOCTYPE svg PUBLIC "-//W3C//DTD SVG 1.1//EN" "http://www.w3.org/Graphics/SVG/1.1/DTD/svg11.dtd">
<svg version="1.1" id="Layer_1" xmlns="http://www.w3.org/2000/svg" xmlns:xlink="http://www.w3.org/1999/xlink" x="0px" y="0px"
	 width="512px" height="512px" viewBox="0 0 512 512" enable-background="new 0 0 512 512" xml:space="preserve">
<path fill="#336699" d="M389.334,16h-320C39.867,16,16,39.867,16,69.333v373.334C16,472.133,39.867,496,69.333,496h373.334
	C472.133,496,496,472.133,496,442.667V122.666L389.334,16z M256,442.667c-44.134,0-80-35.859-80-80.001c0-44.141,35.866-80,80-80
	c44.141,0,80,35.859,80,80C336,406.808,300.141,442.667,256,442.667z M336,176H69.333V69.333H336V176z"/>
</svg>
