<?xml version="1.0" encoding="utf-8"?>
<!-- Generator: Adobe Illustrator 16.0.3, SVG Export Plug-In . SVG Version: 6.00 Build 0)  -->
<!DOCTYPE svg PUBLIC "-//W3C//DTD SVG 1.1//EN" "http://www.w3.org/Graphics/SVG/1.1/DTD/svg11.dtd">
<svg version="1.1" id="Layer_1" xmlns="http://www.w3.org/2000/svg" xmlns:xlink="http://www.w3.org/1999/xlink" x="0px" y="0px"
	 width="512px" height="512px" viewBox="0 0 512 512" enable-background="new 0 0 512 512" xml:space="preserve">
<path fill="#424242" d="M491.624,303.352c-4.768-1.024-47.701-35.472-128.556-39.247c-83.735-3.909-158.562,50.652-158.562,50.652
	s7.193,13.627,19.898,37.122c11.087,20.5-7.661,23.127-14.236,22.337c-43.887-5.27-140.331-23.048-168.962-27.451
	c-26.056-4.007-28.687-28.154-22.237-45.821C32.241,264.591,72.023,153.75,82.641,142.66c8.437-8.812,16.255-4.202,20.958,0.4
	c3.12,3.052,24.371,41.425,24.371,41.425s53.258-42.134,159.85-26.733c106.977,15.457,193.796,111.578,207.816,139.622
	C497.523,301.15,496.384,304.374,491.624,303.352z"/>
</svg>
