mtllib 4-dodecahedron.mtl
v 0 0.356823 0.934172
v 0 -0.356823 0.934172
v 0 -0.356823 -0.934172
v 0 0.356823 -0.934172
v 0.934172 0 0.356823
v -0.934172 0 0.356823
v -0.934172 0 -0.356823
v 0.934172 0 -0.356823
v 0.356823 0.934172 0
v -0.356823 0.934172 0
v -0.356823 -0.934172 0
v 0.356823 -0.934172 0
v 0.57735 0.57735 0.57735
v -0.57735 0.57735 0.57735
v -0.57735 -0.57735 0.57735
v 0.57735 -0.57735 0.57735
v 0.57735 -0.57735 -0.57735
v 0.57735 0.57735 -0.57735
v -0.57735 0.57735 -0.57735
v -0.57735 -0.57735 -0.57735
# 20 vertices

vn 0.525731 0 0.850651
vn 0.525731 0 0.850651
vn 0.525731 -4.86567e-07 0.850651
vn 0.52573 0 0.850651
vn 0.525731 4.86567e-07 0.850651
vn 0 0.850651 0.52573
vn 4.86567e-07 0.850651 0.525731
vn 0 0.850651 0.525731
vn 0 0.850651 0.525731
vn -4.86567e-07 0.850651 0.525731
vn -0.525731 0 0.850651
vn -0.525731 4.86567e-07 0.850651
vn -0.52573 0 0.850651
vn -0.525731 -4.86567e-07 0.850651
vn -0.525731 0 0.850651
vn 0 -0.850651 0.52573
vn -4.86567e-07 -0.850651 0.525731
vn 0 -0.850651 0.525731
vn 0 -0.850651 0.525731
vn 4.86567e-07 -0.850651 0.525731
vn 0.525731 0 -0.850651
vn 0.525731 0 -0.850651
vn 0.525731 4.86567e-07 -0.850651
vn 0.52573 0 -0.850651
vn 0.525731 -4.86567e-07 -0.850651
vn 0 -0.850651 -0.52573
vn 4.86567e-07 -0.850651 -0.525731
vn 0 -0.850651 -0.525731
vn 0 -0.850651 -0.525731
vn -4.86567e-07 -0.850651 -0.525731
vn -0.525731 0 -0.850651
vn -0.525731 -4.86567e-07 -0.850651
vn -0.52573 0 -0.850651
vn -0.525731 4.86567e-07 -0.850651
vn -0.525731 0 -0.850651
vn -4.86567e-07 0.850651 -0.525731
vn 0 0.850651 -0.525731
vn 0 0.850651 -0.525731
vn 4.86567e-07 0.850651 -0.525731
vn 0 0.850651 -0.52573
vn 0.850651 -0.525731 4.86567e-07
vn 0.850651 -0.52573 0
vn 0.850651 -0.525731 -4.86567e-07
vn 0.850651 -0.525731 0
vn 0.850651 -0.525731 0
vn 0.850651 0.525731 0
vn 0.850651 0.525731 0
vn 0.850651 0.525731 -4.86567e-07
vn 0.850651 0.52573 0
vn 0.850651 0.525731 4.86567e-07
vn -0.850651 0.525731 4.86567e-07
vn -0.850651 0.52573 0
vn -0.850651 0.525731 -4.86567e-07
vn -0.850651 0.525731 0
vn -0.850651 0.525731 0
vn -0.850651 -0.525731 0
vn -0.850651 -0.525731 0
vn -0.850651 -0.525731 -4.86567e-07
vn -0.850651 -0.52573 0
vn -0.850651 -0.525731 4.86567e-07
vt 0 0
vt 0 0
vt 0 0
vt 0 0
vt 0 0
vt 0 0
vt 0 0
vt 0 0
vt 0 0
vt 0 0
vt 0 0
vt 0 0
vt 0 0
vt 0 0
vt 0 0
vt 0 0
vt 0 0
vt 0 0
vt 0 0
vt 0 0
vt 0 0
vt 0 0
vt 0 0
vt 0 0
vt 0 0
vt 0 0
vt 0 0
vt 0 0
vt 0 0
vt 0 0
vt 0 0
vt 0 0
vt 0 0
vt 0 0
vt 0 0
vt 0 0
vt 0 0
vt 0 0
vt 0 0
vt 0 0
vt 0 0
vt 0 0
vt 0 0
vt 0 0
vt 0 0
vt 0 0
vt 0 0
vt 0 0
vt 0 0
vt 0 0
vt 0 0
vt 0 0
vt 0 0
vt 0 0
vt 0 0
vt 0 0
vt 0 0
vt 0 0
vt 0 0
vt 0 0
usemtl default
f 1/1/1 2/2/2 16/3/3 5/4/4 13/5/5
f 1/6/6 13/7/7 9/8/8 10/9/9 14/10/10
f 1/11/11 14/12/12 6/13/13 15/14/14 2/15/15
f 2/16/16 15/17/17 11/18/18 12/19/19 16/20/20
f 3/21/21 4/22/22 18/23/23 8/24/24 17/25/25
f 3/26/26 17/27/27 12/28/28 11/29/29 20/30/30
f 3/31/31 20/32/32 7/33/33 19/34/34 4/35/35
f 19/36/36 10/37/37 9/38/38 18/39/39 4/40/40
f 16/41/41 12/42/42 17/43/43 8/44/44 5/45/45
f 5/46/46 8/47/47 18/48/48 9/49/49 13/50/50
f 14/51/51 10/52/52 19/53/53 7/54/54 6/55/55
f 6/56/56 7/57/57 20/58/58 11/59/59 15/60/60
# 12 faces

