mtllib 5-geodesic.mtl
v -5.98765e-18 -0.850651 -0.525731
v 1.31728e-17 0.850651 0.525731
v 0.850651 0.525731 -6.30366e-18
v -0.850651 0.525731 -4.70696e-18
v -0.57735 0.57735 0.57735
v 0.850651 -0.525731 -9.49707e-18
v -0.525731 -5.58847e-18 -0.850651
v -0.525731 -1.83621e-17 0.850651
v 0.525731 -2.47489e-17 0.850651
v 3.87201e-17 -0.850651 0.525731
v 0.525731 -1.83621e-17 -0.850651
v 3.23333e-17 0.850651 -0.525731
v -0.850651 -0.525731 -2.0674e-17
v -0.57735 -0.57735 -0.57735
v 2.57078e-17 0.356822 0.934172
v 4.1528e-17 -0.356822 0.934172
v 4.61422e-18 -0.356822 -0.934172
v 4.1528e-17 0.356822 -0.934172
v 0.57735 0.57735 0.57735
v -0.934172 -2.24119e-17 -0.356822
v -0.934172 -1.18651e-17 0.356822
v -0.57735 -0.57735 0.57735
v 0.934172 -3.29587e-17 0.356822
v 0.57735 -0.57735 0.57735
v -0.57735 0.57735 -0.57735
v 0.57735 0.57735 -0.57735
v 0.934172 9.22845e-18 -0.356822
v -0.356822 -0.934172 -5.191e-18
v -0.356822 0.934172 1.32659e-17
v 0.356822 0.934172 -5.191e-18
v 0.57735 -0.57735 -0.57735
v 0.356822 -0.934172 -1.04644e-17
# 32 vertices

vn -1.15939e-18 -0.987615 -0.156899
vn -1.15939e-18 -0.987615 -0.156899
vn 0 -0.987615 -0.156899
vn -0.366874 0.847481 0.383639
vn -0.366874 0.847481 0.383639
vn -0.366874 0.847481 0.383639
vn -0.620741 0.750513 -0.22674
vn -0.620741 0.750513 -0.22674
vn -0.620741 0.750513 -0.22674
vn -0.383639 0.366874 -0.847481
vn -0.383639 0.366874 -0.847481
vn -0.383639 0.366874 -0.847481
vn -0.383639 -0.366874 0.847481
vn -0.383639 -0.366874 0.847481
vn -0.383639 -0.366874 0.847481
vn -0.366874 -0.847481 -0.383639
vn -0.366874 -0.847481 -0.383639
vn -0.366874 -0.847481 -0.383639
vn -0.22674 -0.620741 -0.750513
vn -0.22674 -0.620741 -0.750513
vn -0.22674 -0.620741 -0.750513
vn 0.22674 -0.620741 -0.750513
vn 0.22674 -0.620741 -0.750513
vn 0.22674 -0.620741 -0.750513
vn 0.366874 -0.847481 -0.383639
vn 0.366874 -0.847481 -0.383639
vn 0.366874 -0.847481 -0.383639
vn -0.22674 0.620741 0.750513
vn -0.22674 0.620741 0.750513
vn -0.22674 0.620741 0.750513
vn 0.22674 0.620741 0.750513
vn 0.22674 0.620741 0.750513
vn 0.22674 0.620741 0.750513
vn 0.366874 0.847481 0.383639
vn 0.366874 0.847481 0.383639
vn 0.366874 0.847481 0.383639
vn 4.05786e-18 0.987615 0.156899
vn 4.05786e-18 0.987615 0.156899
vn 0 0.987615 0.156899
vn 0.847481 0.383639 0.366874
vn 0.847481 0.383639 0.366874
vn 0.847481 0.383639 0.366874
vn 0.987615 0.156899 9.27509e-18
vn 0.987615 0.156899 9.27509e-18
vn 0.987615 0.156899 0
vn 0.847481 0.383639 -0.366874
vn 0.847481 0.383639 -0.366874
vn 0.847481 0.383639 -0.366874
vn 0.620741 0.750513 -0.22674
vn 0.620741 0.750513 -0.22674
vn 0.620741 0.750513 -0.22674
vn -0.847481 0.383639 -0.366874
vn -0.847481 0.383639 -0.366874
vn -0.847481 0.383639 -0.366874
vn -0.987615 0.156899 -2.31878e-18
vn -0.987615 0.156899 -2.31878e-18
vn -0.987615 0.156899 0
vn -0.847481 0.383639 0.366874
vn -0.847481 0.383639 0.366874
vn -0.847481 0.383639 0.366874
vn -0.750513 0.22674 0.620741
vn -0.750513 0.22674 0.620741
vn -0.750513 0.22674 0.620741
vn -0.620741 0.750513 0.22674
vn -0.620741 0.750513 0.22674
vn -0.620741 0.750513 0.22674
vn 0.847481 -0.383639 -0.366874
vn 0.847481 -0.383639 -0.366874
vn 0.847481 -0.383639 -0.366874
vn 0.847481 -0.383639 0.366874
vn 0.847481 -0.383639 0.366874
vn 0.847481 -0.383639 0.366874
vn 0.620741 -0.750513 0.22674
vn 0.620741 -0.750513 0.22674
vn 0.620741 -0.750513 0.22674
vn -0.156899 8.11571e-18 -0.987615
vn -0.156899 8.11571e-18 -0.987615
vn -0.156899 0 -0.987615
vn -0.750513 -0.22674 -0.620741
vn -0.750513 -0.22674 -0.620741
vn -0.750513 -0.22674 -0.620741
vn -0.156899 -3.47816e-18 0.987615
vn -0.156899 -3.47816e-18 0.987615
vn -0.156899 0 0.987615
vn -0.750513 -0.22674 0.620741
vn -0.750513 -0.22674 0.620741
vn -0.750513 -0.22674 0.620741
vn 0.383639 -0.366874 0.847481
vn 0.383639 -0.366874 0.847481
vn 0.383639 -0.366874 0.847481
vn -0.366874 -0.847481 0.383639
vn -0.366874 -0.847481 0.383639
vn -0.366874 -0.847481 0.383639
vn 0.383639 0.366874 -0.847481
vn 0.383639 0.366874 -0.847481
vn 0.383639 0.366874 -0.847481
vn -0.620741 -0.750513 -0.22674
vn -0.620741 -0.750513 -0.22674
vn -0.620741 -0.750513 -0.22674
vn -0.383639 0.366874 0.847481
vn -0.383639 0.366874 0.847481
vn -0.383639 0.366874 0.847481
vn 0.156899 3.47816e-18 0.987615
vn 0.156899 0 0.987615
vn 0.156899 3.47816e-18 0.987615
vn -0.22674 -0.620741 0.750513
vn -0.22674 -0.620741 0.750513
vn -0.22674 -0.620741 0.750513
vn -0.383639 -0.366874 -0.847481
vn -0.383639 -0.366874 -0.847481
vn -0.383639 -0.366874 -0.847481
vn 0.156899 -8.11571e-18 -0.987615
vn 0.156899 0 -0.987615
vn 0.156899 -8.11571e-18 -0.987615
vn -0.22674 0.620741 -0.750513
vn -0.22674 0.620741 -0.750513
vn -0.22674 0.620741 -0.750513
vn 0.383639 0.366874 0.847481
vn 0.383639 0.366874 0.847481
vn 0.383639 0.366874 0.847481
vn -0.847481 -0.383639 -0.366874
vn -0.847481 -0.383639 -0.366874
vn -0.847481 -0.383639 -0.366874
vn -0.750513 0.22674 -0.620741
vn -0.750513 0.22674 -0.620741
vn -0.750513 0.22674 -0.620741
vn -0.987615 -0.156899 2.31878e-18
vn -0.987615 -0.156899 0
vn -0.987615 -0.156899 2.31878e-18
vn -0.847481 -0.383639 0.366874
vn -0.847481 -0.383639 0.366874
vn -0.847481 -0.383639 0.366874
vn 0.750513 0.22674 0.620741
vn 0.750513 0.22674 0.620741
vn 0.750513 0.22674 0.620741
vn 0.750513 -0.22674 0.620741
vn 0.750513 -0.22674 0.620741
vn 0.750513 -0.22674 0.620741
vn 0.22674 -0.620741 0.750513
vn 0.22674 -0.620741 0.750513
vn 0.22674 -0.620741 0.750513
vn -0.366874 0.847481 -0.383639
vn -0.366874 0.847481 -0.383639
vn -0.366874 0.847481 -0.383639
vn 0.750513 0.22674 -0.620741
vn 0.750513 0.22674 -0.620741
vn 0.750513 0.22674 -0.620741
vn 0.22674 0.620741 -0.750513
vn 0.22674 0.620741 -0.750513
vn 0.22674 0.620741 -0.750513
vn 0.987615 -0.156899 -9.27509e-18
vn 0.987615 -0.156899 0
vn 0.987615 -0.156899 -9.27509e-18
vn 0.750513 -0.22674 -0.620741
vn 0.750513 -0.22674 -0.620741
vn 0.750513 -0.22674 -0.620741
vn -0.620741 -0.750513 0.22674
vn -0.620741 -0.750513 0.22674
vn -0.620741 -0.750513 0.22674
vn 1.15939e-18 -0.987615 0.156899
vn 0 -0.987615 0.156899
vn 1.15939e-18 -0.987615 0.156899
vn -4.05786e-18 0.987615 -0.156899
vn 0 0.987615 -0.156899
vn -4.05786e-18 0.987615 -0.156899
vn 0.620741 0.750513 0.22674
vn 0.620741 0.750513 0.22674
vn 0.620741 0.750513 0.22674
vn 0.366874 0.847481 -0.383639
vn 0.366874 0.847481 -0.383639
vn 0.366874 0.847481 -0.383639
vn 0.383639 -0.366874 -0.847481
vn 0.383639 -0.366874 -0.847481
vn 0.383639 -0.366874 -0.847481
vn 0.620741 -0.750513 -0.22674
vn 0.620741 -0.750513 -0.22674
vn 0.620741 -0.750513 -0.22674
vn 0.366874 -0.847481 0.383639
vn 0.366874 -0.847481 0.383639
vn 0.366874 -0.847481 0.383639
vt 0.25 -0.933013
vt 0.25 -0.066987
vt 1 -0.5
vt 0 0
vt 0.333333 0
vt 0.666667 0
vt 1 0
vt 0.5 1
vt 0 0
vt 0 0
vt 0 0
vt 0 0
vt 0 0
vt 0 0
vt 0 0
vt 0 0
vt 0 0
vt 0 0
vt 0 0
vt 0 0
vt 0 0
vt 0 0
vt 0 0
vt 0 0
vt 0 0
vt 0 0
vt 0 0
vt 0 0
vt 0 0
vt 0 0
vt 0 0
vt 0 0
vt 0 0
vt 0 0
vt 0 0
vt 0 0
vt 0 0
vt 0 0
vt 0 0
vt 0 0
vt 0 0
vt 0 0
vt 0 0
vt 0 0
vt 0 0
vt 0 0
vt 0 0
vt 0 0
vt 0 0
vt 0 0
vt 0 0
vt 0 0
vt 0 0
vt 0 0
vt 0 0
vt 0 0
vt 0 0
vt 0 0
vt 0 0
vt 0 0
vt 0 0
vt 0 0
vt 0 0
vt 0 0
vt 0 0
vt 0 0
vt 0 0
vt 0 0
vt 0 0
vt 0 0
vt 0 0
vt 0 0
vt 0 0
vt 0 0
vt 0 0
vt 0 0
vt 0 0
vt 0 0
vt 0 0
vt 0 0
vt 0 0
vt 0 0
vt 0 0
vt 0 0
vt 0 0
vt 0 0
vt 0 0
vt 0 0
vt 0 0
vt 0 0
vt 0 0
vt 0 0
vt 0 0
vt 0 0
vt 0 0
vt 0 0
vt 0 0
vt 0 0
vt 0 0
vt 0 0
vt 0 0
vt 0 0
vt 0 0
vt 0 0
vt 0 0
vt 0 0
vt 0 0
vt 0 0
vt 0 0
vt 0 0
vt 0 0
vt 0 0
vt 0 0
vt 0 0
vt 0 0
vt 0 0
vt 0 0
vt 0 0
vt 0 0
vt 0 0
vt 0 0
vt 0 0
vt 0 0
vt 0 0
vt 0 0
vt 0 0
vt 0 0
vt 0 0
vt 0 0
vt 0 0
vt 0 0
vt 0 0
vt 0 0
vt 0 0
vt 0 0
vt 0 0
vt 0 0
vt 0 0
vt 0 0
vt 0 0
vt 0 0
vt 0 0
vt 0 0
vt 0 0
vt 0 0
vt 0 0
vt 0 0
vt 0 0
vt 0 0
vt 0 0
vt 0 0
vt 0 0
vt 0 0
vt 0 0
vt 0 0
vt 0 0
vt 0 0
vt 0 0
vt 0 0
vt 0 0
vt 0 0
vt 0 0
vt 0 0
vt 0 0
vt 0 0
vt 0 0
vt 0 0
vt 0 0
vt 0 0
vt 0 0
vt 0 0
vt 0 0
vt 0 0
vt 0 0
vt 0 0
vt 0 0
vt 0 0
vt 0 0
vt 0 0
vt 0 0
usemtl default
f 32/1/1 28/2/2 1/3/3
f 29/4/4 5/5/5 2/6/6
f 29/7/7 25/8/8 4/9/9
f 25/10/10 18/11/11 7/12/12
f 22/13/13 16/14/14 8/15/15
f 28/16/16 14/17/17 1/18/18
f 14/19/19 17/20/20 1/21/21
f 17/22/22 31/23/23 1/24/24
f 31/25/25 32/26/26 1/27/27
f 5/28/28 15/29/29 2/30/30
f 15/31/31 19/32/32 2/33/33
f 19/34/34 30/35/35 2/36/36
f 30/37/37 29/38/38 2/39/39
f 19/40/40 23/41/41 3/42/42
f 23/43/43 27/44/44 3/45/45
f 27/46/46 26/47/47 3/48/48
f 26/49/49 30/50/50 3/51/51
f 25/52/52 20/53/53 4/54/54
f 20/55/55 21/56/56 4/57/57
f 21/58/58 5/59/59 4/60/60
f 5/61/61 21/62/62 8/63/63
f 29/64/64 4/65/65 5/66/66
f 31/67/67 27/68/68 6/69/69
f 23/70/70 24/71/71 6/72/72
f 24/73/73 32/74/74 6/75/75
f 18/76/76 17/77/77 7/78/78
f 14/79/79 20/80/80 7/81/81
f 16/82/82 15/83/83 8/84/84
f 21/85/85 22/86/86 8/87/87
f 16/88/88 24/89/89 9/90/90
f 22/91/91 28/92/92 10/93/93
f 18/94/94 26/95/95 11/96/96
f 28/97/97 13/98/98 14/99/99
f 15/100/100 5/101/101 8/102/102
f 16/103/103 9/104/104 15/105/105
f 22/106/106 10/107/107 16/108/108
f 14/109/109 7/110/110 17/111/111
f 18/112/112 11/113/113 17/114/114
f 25/115/115 12/116/116 18/117/117
f 15/118/118 9/119/119 19/120/120
f 14/121/121 13/122/122 20/123/123
f 25/124/124 7/125/125 20/126/126
f 20/127/127 13/128/128 21/129/129
f 21/130/130 13/131/131 22/132/132
f 19/133/133 9/134/134 23/135/135
f 23/136/136 9/137/137 24/138/138
f 16/139/139 10/140/140 24/141/141
f 29/142/142 12/143/143 25/144/144
f 27/145/145 11/146/146 26/147/147
f 18/148/148 12/149/149 26/150/150
f 23/151/151 6/152/152 27/153/153
f 31/154/154 11/155/155 27/156/156
f 22/157/157 13/158/158 28/159/159
f 32/160/160 10/161/161 28/162/162
f 30/163/163 12/164/164 29/165/165
f 19/166/166 3/167/167 30/168/168
f 26/169/169 12/170/170 30/171/171
f 17/172/172 11/173/173 31/174/174
f 31/175/175 6/176/176 32/177/177
f 24/178/178 10/179/179 32/180/180
# 60 faces

