# This file uses centimeters as units for non-parametric coordinates.

v 0.353553 0.000000 -0.353553
v 0.000000 0.000000 -0.500000
v -0.353553 0.000000 -0.353553
v -0.500000 0.000000 0.000000
v -0.353553 0.000000 0.353553
v 0.000000 0.000000 0.500000
v 0.353553 0.000000 0.353553
v 0.500000 0.000000 0.000000
v 0.457107 0.353553 -0.457107
v 0.000000 0.353553 -0.646447
v -0.457107 0.353553 -0.457107
v -0.646447 0.353553 0.000000
v -0.457107 0.353553 0.457107
v 0.000000 0.353553 0.646447
v 0.457107 0.353553 0.457107
v 0.646447 0.353553 0.000000
v 0.707107 0.500000 -0.707107
v 0.000000 0.500000 -1.000000
v -0.707107 0.500000 -0.707107
v -1.000000 0.500000 0.000000
v -0.707107 0.500000 0.707107
v 0.000000 0.500000 1.000000
v 0.707107 0.500000 0.707107
v 1.000000 0.500000 0.000000
v 0.957107 0.353553 -0.957107
v 0.000000 0.353553 -1.353553
v -0.957107 0.353553 -0.957107
v -1.353553 0.353553 0.000000
v -0.957107 0.353553 0.957107
v 0.000000 0.353553 1.353553
v 0.957107 0.353553 0.957107
v 1.353553 0.353553 0.000000
v 1.060660 0.000000 -1.060660
v 0.000000 0.000000 -1.500000
v -1.060660 0.000000 -1.060660
v -1.500000 0.000000 0.000000
v -1.060660 0.000000 1.060660
v 0.000000 0.000000 1.500000
v 1.060660 0.000000 1.060660
v 1.500000 0.000000 0.000000
v 0.957107 -0.353553 -0.957107
v 0.000000 -0.353553 -1.353553
v -0.957107 -0.353553 -0.957107
v -1.353553 -0.353553 0.000000
v -0.957107 -0.353553 0.957107
v 0.000000 -0.353553 1.353553
v 0.957107 -0.353553 0.957107
v 1.353553 -0.353553 0.000000
v 0.707107 -0.500000 -0.707107
v 0.000000 -0.500000 -1.000000
v -0.707107 -0.500000 -0.707107
v -1.000000 -0.500000 0.000000
v -0.707107 -0.500000 0.707107
v 0.000000 -0.500000 1.000000
v 0.707107 -0.500000 0.707107
v 1.000000 -0.500000 0.000000
v 0.457107 -0.353553 -0.457107
v 0.000000 -0.353553 -0.646447
v -0.457107 -0.353553 -0.457107
v -0.646447 -0.353553 0.000000
v -0.457107 -0.353553 0.457107
v 0.000000 -0.353553 0.646447
v 0.457107 -0.353553 0.457107
v 0.646447 -0.353553 0.000000
vt 0.000000 1.000000
vt 0.125000 1.000000
vt 0.250000 1.000000
vt 0.375000 1.000000
vt 0.500000 1.000000
vt 0.625000 1.000000
vt 0.750000 1.000000
vt 0.875000 1.000000
vt 1.000000 1.000000
vt 0.000000 0.875000
vt 0.125000 0.875000
vt 0.250000 0.875000
vt 0.375000 0.875000
vt 0.500000 0.875000
vt 0.625000 0.875000
vt 0.750000 0.875000
vt 0.875000 0.875000
vt 1.000000 0.875000
vt 0.000000 0.750000
vt 0.125000 0.750000
vt 0.250000 0.750000
vt 0.375000 0.750000
vt 0.500000 0.750000
vt 0.625000 0.750000
vt 0.750000 0.750000
vt 0.875000 0.750000
vt 1.000000 0.750000
vt 0.000000 0.625000
vt 0.125000 0.625000
vt 0.250000 0.625000
vt 0.375000 0.625000
vt 0.500000 0.625000
vt 0.625000 0.625000
vt 0.750000 0.625000
vt 0.875000 0.625000
vt 1.000000 0.625000
vt 0.000000 0.500000
vt 0.125000 0.500000
vt 0.250000 0.500000
vt 0.375000 0.500000
vt 0.500000 0.500000
vt 0.625000 0.500000
vt 0.750000 0.500000
vt 0.875000 0.500000
vt 1.000000 0.500000
vt 0.000000 0.375000
vt 0.125000 0.375000
vt 0.250000 0.375000
vt 0.375000 0.375000
vt 0.500000 0.375000
vt 0.625000 0.375000
vt 0.750000 0.375000
vt 0.875000 0.375000
vt 1.000000 0.375000
vt 0.000000 0.250000
vt 0.125000 0.250000
vt 0.250000 0.250000
vt 0.375000 0.250000
vt 0.500000 0.250000
vt 0.625000 0.250000
vt 0.750000 0.250000
vt 0.875000 0.250000
vt 1.000000 0.250000
vt 0.000000 0.125000
vt 0.125000 0.125000
vt 0.250000 0.125000
vt 0.375000 0.125000
vt 0.500000 0.125000
vt 0.625000 0.125000
vt 0.750000 0.125000
vt 0.875000 0.125000
vt 1.000000 0.125000
vt 0.000000 0.000000
vt 0.125000 0.000000
vt 0.250000 0.000000
vt 0.375000 0.000000
vt 0.500000 0.000000
vt 0.625000 0.000000
vt 0.750000 0.000000
vt 0.875000 0.000000
vt 1.000000 0.000000
vn -0.357407 0.357407 0.862856
vn -0.357407 0.357407 0.862856
vn -0.357407 0.357407 0.862856
vn -0.357407 0.357407 0.862856
vn 0.357407 0.357407 0.862856
vn 0.357407 0.357407 0.862856
vn 0.357407 0.357407 0.862856
vn 0.357407 0.357407 0.862856
vn 0.862856 0.357407 0.357407
vn 0.862856 0.357407 0.357407
vn 0.862856 0.357407 0.357407
vn 0.862856 0.357407 0.357407
vn 0.862856 0.357407 -0.357407
vn 0.862856 0.357407 -0.357407
vn 0.862856 0.357407 -0.357407
vn 0.862856 0.357407 -0.357407
vn 0.357407 0.357407 -0.862856
vn 0.357407 0.357407 -0.862856
vn 0.357407 0.357407 -0.862856
vn 0.357407 0.357407 -0.862856
vn -0.357407 0.357407 -0.862856
vn -0.357407 0.357407 -0.862856
vn -0.357407 0.357407 -0.862856
vn -0.357407 0.357407 -0.862856
vn -0.862856 0.357407 -0.357407
vn -0.862856 0.357407 -0.357407
vn -0.862856 0.357407 -0.357407
vn -0.862856 0.357407 -0.357407
vn -0.862856 0.357407 0.357407
vn -0.862856 0.357407 0.357407
vn -0.862856 0.357407 0.357407
vn -0.862856 0.357407 0.357407
vn -0.156558 0.912487 0.377964
vn -0.156558 0.912487 0.377964
vn -0.156558 0.912487 0.377964
vn -0.156558 0.912487 0.377964
vn 0.156558 0.912487 0.377964
vn 0.156558 0.912487 0.377964
vn 0.156558 0.912487 0.377964
vn 0.156558 0.912487 0.377964
vn 0.377964 0.912487 0.156558
vn 0.377964 0.912487 0.156558
vn 0.377964 0.912487 0.156558
vn 0.377965 0.912487 0.156558
vn 0.377964 0.912487 -0.156558
vn 0.377964 0.912487 -0.156558
vn 0.377965 0.912487 -0.156558
vn 0.377964 0.912487 -0.156558
vn 0.156558 0.912487 -0.377964
vn 0.156558 0.912487 -0.377964
vn 0.156558 0.912487 -0.377964
vn 0.156558 0.912487 -0.377964
vn -0.156558 0.912487 -0.377964
vn -0.156558 0.912487 -0.377964
vn -0.156558 0.912487 -0.377964
vn -0.156558 0.912487 -0.377964
vn -0.377964 0.912487 -0.156558
vn -0.377964 0.912487 -0.156558
vn -0.377964 0.912487 -0.156558
vn -0.377964 0.912487 -0.156558
vn -0.377964 0.912487 0.156558
vn -0.377964 0.912487 0.156558
vn -0.377964 0.912487 0.156558
vn -0.377964 0.912487 0.156558
vn 0.156558 0.912487 -0.377965
vn 0.156558 0.912487 -0.377965
vn 0.156558 0.912487 -0.377965
vn 0.156558 0.912487 -0.377965
vn -0.156558 0.912487 -0.377965
vn -0.156558 0.912487 -0.377965
vn -0.156558 0.912487 -0.377965
vn -0.156558 0.912487 -0.377965
vn -0.377965 0.912487 -0.156558
vn -0.377965 0.912487 -0.156558
vn -0.377965 0.912487 -0.156558
vn -0.377965 0.912487 -0.156558
vn -0.377965 0.912487 0.156558
vn -0.377965 0.912487 0.156558
vn -0.377964 0.912487 0.156558
vn -0.377964 0.912487 0.156558
vn -0.156558 0.912487 0.377965
vn -0.156558 0.912487 0.377965
vn -0.156558 0.912487 0.377965
vn -0.156558 0.912487 0.377965
vn 0.156558 0.912487 0.377965
vn 0.156558 0.912487 0.377965
vn 0.156558 0.912487 0.377965
vn 0.156558 0.912487 0.377965
vn 0.377965 0.912487 0.156558
vn 0.377965 0.912487 0.156558
vn 0.377965 0.912487 0.156558
vn 0.377965 0.912487 0.156558
vn 0.377965 0.912487 -0.156558
vn 0.377965 0.912487 -0.156558
vn 0.377965 0.912487 -0.156558
vn 0.377965 0.912487 -0.156558
vn 0.357407 0.357407 -0.862856
vn 0.357407 0.357407 -0.862856
vn 0.357407 0.357407 -0.862856
vn 0.357407 0.357407 -0.862856
vn -0.357407 0.357407 -0.862856
vn -0.357407 0.357407 -0.862856
vn -0.357407 0.357407 -0.862856
vn -0.357407 0.357407 -0.862856
vn -0.862856 0.357407 -0.357407
vn -0.862856 0.357407 -0.357407
vn -0.862856 0.357407 -0.357407
vn -0.862856 0.357407 -0.357407
vn -0.862856 0.357407 0.357407
vn -0.862856 0.357407 0.357407
vn -0.862856 0.357407 0.357407
vn -0.862856 0.357407 0.357407
vn -0.357407 0.357407 0.862856
vn -0.357407 0.357407 0.862856
vn -0.357407 0.357407 0.862856
vn -0.357407 0.357407 0.862856
vn 0.357407 0.357407 0.862856
vn 0.357407 0.357407 0.862856
vn 0.357407 0.357407 0.862856
vn 0.357407 0.357407 0.862856
vn 0.862856 0.357407 0.357407
vn 0.862856 0.357407 0.357407
vn 0.862856 0.357407 0.357407
vn 0.862856 0.357407 0.357407
vn 0.862856 0.357407 -0.357407
vn 0.862856 0.357407 -0.357407
vn 0.862856 0.357407 -0.357407
vn 0.862856 0.357407 -0.357407
vn 0.357407 -0.357407 -0.862856
vn 0.357407 -0.357407 -0.862856
vn 0.357407 -0.357407 -0.862856
vn 0.357407 -0.357407 -0.862856
vn -0.357407 -0.357407 -0.862856
vn -0.357407 -0.357407 -0.862856
vn -0.357407 -0.357407 -0.862856
vn -0.357407 -0.357407 -0.862856
vn -0.862856 -0.357407 -0.357407
vn -0.862856 -0.357407 -0.357407
vn -0.862856 -0.357407 -0.357407
vn -0.862856 -0.357407 -0.357407
vn -0.862856 -0.357407 0.357407
vn -0.862856 -0.357407 0.357407
vn -0.862856 -0.357407 0.357407
vn -0.862856 -0.357407 0.357407
vn -0.357407 -0.357407 0.862856
vn -0.357407 -0.357407 0.862856
vn -0.357407 -0.357407 0.862856
vn -0.357407 -0.357407 0.862856
vn 0.357407 -0.357407 0.862856
vn 0.357407 -0.357407 0.862856
vn 0.357407 -0.357407 0.862856
vn 0.357407 -0.357407 0.862856
vn 0.862856 -0.357407 0.357407
vn 0.862856 -0.357407 0.357407
vn 0.862856 -0.357407 0.357407
vn 0.862856 -0.357407 0.357407
vn 0.862856 -0.357407 -0.357407
vn 0.862856 -0.357407 -0.357407
vn 0.862856 -0.357407 -0.357407
vn 0.862856 -0.357407 -0.357407
vn 0.156558 -0.912487 -0.377965
vn 0.156558 -0.912487 -0.377965
vn 0.156558 -0.912487 -0.377965
vn 0.156558 -0.912487 -0.377965
vn -0.156558 -0.912487 -0.377965
vn -0.156558 -0.912487 -0.377965
vn -0.156558 -0.912487 -0.377965
vn -0.156558 -0.912487 -0.377965
vn -0.377964 -0.912487 -0.156558
vn -0.377964 -0.912487 -0.156558
vn -0.377964 -0.912487 -0.156558
vn -0.377964 -0.912487 -0.156558
vn -0.377964 -0.912487 0.156558
vn -0.377964 -0.912487 0.156558
vn -0.377964 -0.912487 0.156558
vn -0.377964 -0.912487 0.156558
vn -0.156558 -0.912487 0.377965
vn -0.156558 -0.912487 0.377965
vn -0.156558 -0.912487 0.377965
vn -0.156558 -0.912487 0.377965
vn 0.156558 -0.912487 0.377965
vn 0.156558 -0.912487 0.377965
vn 0.156558 -0.912487 0.377965
vn 0.156558 -0.912487 0.377965
vn 0.377965 -0.912487 0.156558
vn 0.377965 -0.912487 0.156558
vn 0.377965 -0.912487 0.156558
vn 0.377965 -0.912487 0.156558
vn 0.377964 -0.912487 -0.156558
vn 0.377964 -0.912487 -0.156558
vn 0.377964 -0.912487 -0.156558
vn 0.377965 -0.912487 -0.156558
vn -0.156558 -0.912487 0.377965
vn -0.156558 -0.912487 0.377965
vn -0.156558 -0.912487 0.377965
vn -0.156558 -0.912487 0.377965
vn 0.156558 -0.912487 0.377965
vn 0.156558 -0.912487 0.377965
vn 0.156558 -0.912487 0.377965
vn 0.156558 -0.912487 0.377965
vn 0.377965 -0.912487 0.156558
vn 0.377965 -0.912487 0.156558
vn 0.377964 -0.912487 0.156558
vn 0.377964 -0.912487 0.156558
vn 0.377965 -0.912487 -0.156558
vn 0.377965 -0.912487 -0.156558
vn 0.377964 -0.912487 -0.156558
vn 0.377964 -0.912487 -0.156558
vn 0.156558 -0.912487 -0.377965
vn 0.156558 -0.912487 -0.377965
vn 0.156558 -0.912487 -0.377965
vn 0.156558 -0.912487 -0.377965
vn -0.156558 -0.912487 -0.377965
vn -0.156558 -0.912487 -0.377965
vn -0.156558 -0.912487 -0.377965
vn -0.156558 -0.912487 -0.377965
vn -0.377964 -0.912487 -0.156558
vn -0.377964 -0.912487 -0.156558
vn -0.377964 -0.912487 -0.156558
vn -0.377964 -0.912487 -0.156558
vn -0.377964 -0.912487 0.156558
vn -0.377964 -0.912487 0.156558
vn -0.377964 -0.912487 0.156558
vn -0.377964 -0.912487 0.156558
vn -0.357407 -0.357407 0.862856
vn -0.357407 -0.357407 0.862856
vn -0.357407 -0.357407 0.862856
vn -0.357407 -0.357407 0.862856
vn 0.357407 -0.357407 0.862856
vn 0.357407 -0.357407 0.862856
vn 0.357407 -0.357407 0.862856
vn 0.357407 -0.357407 0.862856
vn 0.862856 -0.357407 0.357407
vn 0.862856 -0.357407 0.357407
vn 0.862856 -0.357407 0.357407
vn 0.862856 -0.357407 0.357407
vn 0.862856 -0.357407 -0.357407
vn 0.862856 -0.357407 -0.357407
vn 0.862856 -0.357407 -0.357407
vn 0.862856 -0.357407 -0.357407
vn 0.357407 -0.357407 -0.862856
vn 0.357407 -0.357407 -0.862856
vn 0.357407 -0.357407 -0.862856
vn 0.357407 -0.357407 -0.862856
vn -0.357407 -0.357407 -0.862856
vn -0.357407 -0.357407 -0.862856
vn -0.357407 -0.357407 -0.862856
vn -0.357407 -0.357407 -0.862856
vn -0.862856 -0.357407 -0.357407
vn -0.862856 -0.357407 -0.357407
vn -0.862856 -0.357407 -0.357407
vn -0.862856 -0.357407 -0.357407
vn -0.862856 -0.357407 0.357407
vn -0.862856 -0.357407 0.357407
vn -0.862856 -0.357407 0.357407
vn -0.862856 -0.357407 0.357407
f 2/2/1 1/1/2 9/10/3 10/11/4
f 3/3/5 2/2/6 10/11/7 11/12/8
f 4/4/9 3/3/10 11/12/11 12/13/12
f 5/5/13 4/4/14 12/13/15 13/14/16
f 6/6/17 5/5/18 13/14/19 14/15/20
f 7/7/21 6/6/22 14/15/23 15/16/24
f 8/8/25 7/7/26 15/16/27 16/17/28
f 1/9/29 8/8/30 16/17/31 9/18/32
f 10/11/33 9/10/34 17/19/35 18/20/36
f 11/12/37 10/11/38 18/20/39 19/21/40
f 12/13/41 11/12/42 19/21/43 20/22/44
f 13/14/45 12/13/46 20/22/47 21/23/48
f 14/15/49 13/14/50 21/23/51 22/24/52
f 15/16/53 14/15/54 22/24/55 23/25/56
f 16/17/57 15/16/58 23/25/59 24/26/60
f 9/18/61 16/17/62 24/26/63 17/27/64
f 18/20/65 17/19/66 25/28/67 26/29/68
f 19/21/69 18/20/70 26/29/71 27/30/72
f 20/22/73 19/21/74 27/30/75 28/31/76
f 21/23/77 20/22/78 28/31/79 29/32/80
f 22/24/81 21/23/82 29/32/83 30/33/84
f 23/25/85 22/24/86 30/33/87 31/34/88
f 24/26/89 23/25/90 31/34/91 32/35/92
f 17/27/93 24/26/94 32/35/95 25/36/96
f 26/29/97 25/28/98 33/37/99 34/38/100
f 27/30/101 26/29/102 34/38/103 35/39/104
f 28/31/105 27/30/106 35/39/107 36/40/108
f 29/32/109 28/31/110 36/40/111 37/41/112
f 30/33/113 29/32/114 37/41/115 38/42/116
f 31/34/117 30/33/118 38/42/119 39/43/120
f 32/35/121 31/34/122 39/43/123 40/44/124
f 25/36/125 32/35/126 40/44/127 33/45/128
f 34/38/129 33/37/130 41/46/131 42/47/132
f 35/39/133 34/38/134 42/47/135 43/48/136
f 36/40/137 35/39/138 43/48/139 44/49/140
f 37/41/141 36/40/142 44/49/143 45/50/144
f 38/42/145 37/41/146 45/50/147 46/51/148
f 39/43/149 38/42/150 46/51/151 47/52/152
f 40/44/153 39/43/154 47/52/155 48/53/156
f 33/45/157 40/44/158 48/53/159 41/54/160
f 42/47/161 41/46/162 49/55/163 50/56/164
f 43/48/165 42/47/166 50/56/167 51/57/168
f 44/49/169 43/48/170 51/57/171 52/58/172
f 45/50/173 44/49/174 52/58/175 53/59/176
f 46/51/177 45/50/178 53/59/179 54/60/180
f 47/52/181 46/51/182 54/60/183 55/61/184
f 48/53/185 47/52/186 55/61/187 56/62/188
f 41/54/189 48/53/190 56/62/191 49/63/192
f 50/56/193 49/55/194 57/64/195 58/65/196
f 51/57/197 50/56/198 58/65/199 59/66/200
f 52/58/201 51/57/202 59/66/203 60/67/204
f 53/59/205 52/58/206 60/67/207 61/68/208
f 54/60/209 53/59/210 61/68/211 62/69/212
f 55/61/213 54/60/214 62/69/215 63/70/216
f 56/62/217 55/61/218 63/70/219 64/71/220
f 49/63/221 56/62/222 64/71/223 57/72/224
f 58/65/225 57/64/226 1/73/227 2/74/228
f 59/66/229 58/65/230 2/74/231 3/75/232
f 60/67/233 59/66/234 3/75/235 4/76/236
f 61/68/237 60/67/238 4/76/239 5/77/240
f 62/69/241 61/68/242 5/77/243 6/78/244
f 63/70/245 62/69/246 6/78/247 7/79/248
f 64/71/249 63/70/250 7/79/251 8/80/252
f 57/72/253 64/71/254 8/80/255 1/81/256
